<svg xmlns="http://www.w3.org/2000/svg" style="display: none;">

  <!-- Search Icon -->
  <symbol id="icon-search" viewBox="0 0 512 512">
    <path d="M416 208c0 45.9-14.9 88.3-40 122.7L502.6 457.4c12.5 12.5 12.5 32.8 0 45.3s-32.8 12.5-45.3 0L330.7 376C296.3 401.1 253.9 416 208 416 93.1 416 0 322.9 0 208S93.1 0 208 0 416 93.1 416 208zM208 352a144 144 0 1 0 0-288 144 144 0 1 0 0 288z"/>
  </symbol>

  <!-- Moon Icon (Dark Mode) -->
  <symbol id="icon-moon" viewBox="0 0 24 24">
    <path d="M21.64,13a1,1,0,0,0-1.05-.14,8.05,8.05,0,0,1-3.37.73A8.15,8.15,0,0,1,9.08,5.49a8.59,8.59,0,0,1,.25-2A1,1,0,0,0,8,2.36,10.14,10.14,0,1,0,22,14.05,1,1,0,0,0,21.64,13Zm-9.5,6.69A8.14,8.14,0,0,1,7.08,5.22v.27A10.15,10.15,0,0,0,17.22,15.63a9.79,9.79,0,0,0,2.1-.22A8.11,8.11,0,0,1,12.14,19.73Z"/>
  </symbol>

  <!-- Sun Icon (Light Mode) -->
  <symbol id="icon-sun" viewBox="0 0 24 24">
    <path d="M5.64,17l-.71.71a1,1,0,0,0,0,1.41,1,1,0,0,0,1.41,0l.71-.71A1,1,0,0,0,5.64,17ZM5,12a1,1,0,0,0-1-1H3a1,1,0,0,0,0,2H4A1,1,0,0,0,5,12Zm7-7a1,1,0,0,0,1-1V3a1,1,0,0,0-2,0V4A1,1,0,0,0,12,5ZM5.64,7.05a1,1,0,0,0,.7.29,1,1,0,0,0,.71-.29,1,1,0,0,0,0-1.41l-.71-.71A1,1,0,0,0,4.93,6.34Zm12,.29a1,1,0,0,0,.7-.29l.71-.71a1,1,0,1,0-1.41-1.41L17,5.64a1,1,0,0,0,0,1.41A1,1,0,0,0,17.66,7.34ZM21,11H20a1,1,0,0,0,0,2h1a1,1,0,0,0,0-2Zm-9,8a1,1,0,0,0-1,1v1a1,1,0,0,0,2,0V20A1,1,0,0,0,12,19ZM18.36,17A1,1,0,0,0,17,18.36l.71.71a1,1,0,0,0,1.41,0,1,1,0,0,0,0-1.41ZM12,6.5A5.5,5.5,0,1,0,17.5,12,5.51,5.51,0,0,0,12,6.5Zm0,9A3.5,3.5,0,1,1,15.5,12,3.5,3.5,0,0,1,12,15.5Z"/>
  </symbol>

  <!-- GitHub Icon -->
  <symbol id="icon-github" viewBox="0 0 512 512">
    <path d="M173.9 397.4c0 2-2.3 3.6-5.2 3.6-3.3 .3-5.6-1.3-5.6-3.6 0-2 2.3-3.6 5.2-3.6 3-.3 5.6 1.3 5.6 3.6zm-31.1-4.5c-.7 2 1.3 4.3 4.3 4.9 2.6 1 5.6 0 6.2-2s-1.3-4.3-4.3-5.2c-2.6-.7-5.5 .3-6.2 2.3zm44.2-1.7c-2.9 .7-4.9 2.6-4.6 4.9 .3 2 2.9 3.3 5.9 2.6 2.9-.7 4.9-2.6 4.6-4.6-.3-1.9-3-3.2-5.9-2.9zM252.8 8c-138.7 0-244.8 105.3-244.8 244 0 110.9 69.8 205.8 169.5 239.2 12.8 2.3 17.3-5.6 17.3-12.1 0-6.2-.3-40.4-.3-61.4 0 0-70 15-84.7-29.8 0 0-11.4-29.1-27.8-36.6 0 0-22.9-15.7 1.6-15.4 0 0 24.9 2 38.6 25.8 21.9 38.6 58.6 27.5 72.9 20.9 2.3-16 8.8-27.1 16-33.7-55.9-6.2-112.3-14.3-112.3-110.5 0-27.5 7.6-41.3 23.6-58.9-2.6-6.5-11.1-33.3 2.6-67.9 20.9-6.5 69 27 69 27 20-5.6 41.5-8.5 62.8-8.5s42.8 2.9 62.8 8.5c0 0 48.1-33.6 69-27 13.7 34.7 5.2 61.4 2.6 67.9 16 17.7 25.8 31.5 25.8 58.9 0 96.5-58.9 104.2-114.8 110.5 9.2 7.9 17 22.9 17 46.4 0 33.7-.3 75.4-.3 83.6 0 6.5 4.6 14.4 17.3 12.1 100-33.2 167.8-128.1 167.8-239 0-138.7-112.5-244-251.2-244zM105.2 352.9c-1.3 1-1 3.3 .7 5.2 1.6 1.6 3.9 2.3 5.2 1 1.3-1 1-3.3-.7-5.2-1.6-1.6-3.9-2.3-5.2-1zm-10.8-8.1c-.7 1.3 .3 2.9 2.3 3.9 1.6 1 3.6 .7 4.3-.7 .7-1.3-.3-2.9-2.3-3.9-2-.6-3.6-.3-4.3 .7zm32.4 35.6c-1.6 1.3-1 4.3 1.3 6.2 2.3 2.3 5.2 2.6 6.5 1 1.3-1.3 .7-4.3-1.3-6.2-2.2-2.3-5.2-2.6-6.5-1zm-11.4-14.7c-1.6 1-1.6 3.6 0 5.9s4.3 3.3 5.6 2.3c1.6-1.3 1.6-3.9 0-6.2-1.4-2.3-4-3.3-5.6-2z"/>
  </symbol>

  <!-- LinkedIn Icon -->
  <symbol id="icon-linkedin" viewBox="0 0 448 512">
    <path d="M416 32L31.9 32C14.3 32 0 46.5 0 64.3L0 447.7C0 465.5 14.3 480 31.9 480L416 480c17.6 0 32-14.5 32-32.3l0-383.4C448 46.5 433.6 32 416 32zM135.4 416l-66.4 0 0-213.8 66.5 0 0 213.8-.1 0zM102.2 96a38.5 38.5 0 1 1 0 77 38.5 38.5 0 1 1 0-77zM384.3 416l-66.4 0 0-104c0-24.8-.5-56.7-34.5-56.7-34.6 0-39.9 27-39.9 54.9l0 105.8-66.4 0 0-213.8 63.7 0 0 29.2 .9 0c8.9-16.8 30.6-34.5 62.9-34.5 67.2 0 79.7 44.3 79.7 101.9l0 117.2z"/>
  </symbol>

  <!-- Resume Icon -->
  <symbol id="icon-resume" viewBox="0 0 384 512">
    <path d="M64 0C28.7 0 0 28.7 0 64L0 448c0 35.3 28.7 64 64 64l256 0c35.3 0 64-28.7 64-64l0-277.5c0-17-6.7-33.3-18.7-45.3L258.7 18.7C246.7 6.7 230.5 0 213.5 0L64 0zM325.5 176L232 176c-13.3 0-24-10.7-24-24L208 58.5 325.5 176z"/>
  </symbol>

  <!-- Email Icon -->
  <symbol id="icon-email" viewBox="0 0 512 512">
    <path d="M48 64c-26.5 0-48 21.5-48 48 0 15.1 7.1 29.3 19.2 38.4l208 156c17.1 12.8 40.5 12.8 57.6 0l208-156c12.1-9.1 19.2-23.3 19.2-38.4 0-26.5-21.5-48-48-48L48 64zM0 196L0 384c0 35.3 28.7 64 64 64l384 0c35.3 0 64-28.7 64-64l0-188-198.4 148.8c-34.1 25.6-81.1 25.6-115.2 0L0 196z"/>
  </symbol>

  <!-- Close Icon (X) -->
  <symbol id="icon-close" viewBox="0 0 24 24" fill="none" stroke="currentColor">
    <path stroke-linecap="round" stroke-linejoin="round" stroke-width="2" d="M6 18L18 6M6 6l12 12"/>
  </symbol>

  <!-- Menu Icon (Hamburger) -->
  <symbol id="icon-menu" viewBox="0 0 24 24" fill="none" stroke="currentColor">
    <path stroke-linecap="round" stroke-linejoin="round" stroke-width="2" d="M4 6h16M4 12h16M4 18h16"/>
  </symbol>

  <!-- Battery Icon -->
  <symbol id="icon-battery" viewBox="0 0 576 512">
    <path d="M464 160c8.8 0 16 7.2 16 16l0 160c0 8.8-7.2 16-16 16L80 352c-8.8 0-16-7.2-16-16l0-160c0-8.8 7.2-16 16-16l384 0zM80 96C35.8 96 0 131.8 0 176L0 336c0 44.2 35.8 80 80 80l384 0c44.2 0 80-35.8 80-80l0-16c17.7 0 32-14.3 32-32l0-64c0-17.7-14.3-32-32-32l0-16c0-44.2-35.8-80-80-80L80 96z"/>
  </symbol>

  <!-- Battery Charging Icon -->
  <symbol id="icon-battery-charging" viewBox="0 0 640 512">
    <path d="M320 0c-13.3 0-24 10.7-24 24l0 16L80 40C35.8 40 0 75.8 0 120L0 280c0 44.2 35.8 80 80 80l216 0 0 16c0 13.3 10.7 24 24 24s24-10.7 24-24l0-16L560 360c44.2 0 80-35.8 80-80l0-160c0-44.2-35.8-80-80-80L344 40l0-16c0-13.3-10.7-24-24-24zM80 88l464 0c17.7 0 32 14.3 32 32l0 160c0 17.7-14.3 32-32 32L80 312c-17.7 0-32-14.3-32-32L48 120c0-17.7 14.3-32 32-32zm480 168l0-64c17.7 0 32 14.3 32 32s-14.3 32-32 32z"/>
  </symbol>

  <!-- Battery 1/4 Icon -->
  <symbol id="icon-battery-one" viewBox="0 0 640 512">
    <path d="M528 128c8.8 0 16 7.2 16 16l0 224c0 8.8-7.2 16-16 16l-416 0c-8.8 0-16-7.2-16-16l0-224c0-8.8 7.2-16 16-16l416 0zM112 64c-44.2 0-80 35.8-80 80l0 224c0 44.2 35.8 80 80 80l416 0c44.2 0 80-35.8 80-80l0-48c17.7 0 32-14.3 32-32l0-64c0-17.7-14.3-32-32-32l0-48c0-44.2-35.8-80-80-80L112 64zm56 112c-13.3 0-24 10.7-24 24l0 112c0 13.3 10.7 24 24 24l64 0c13.3 0 24-10.7 24-24l0-112c0-13.3-10.7-24-24-24l-64 0z"/>
  </symbol>

  <!-- Battery 2/4 Icon -->
  <symbol id="icon-battery-two" viewBox="0 0 640 512">
    <path d="M528 128c8.8 0 16 7.2 16 16l0 224c0 8.8-7.2 16-16 16l-416 0c-8.8 0-16-7.2-16-16l0-224c0-8.8 7.2-16 16-16l416 0zM112 64c-44.2 0-80 35.8-80 80l0 224c0 44.2 35.8 80 80 80l416 0c44.2 0 80-35.8 80-80l0-48c17.7 0 32-14.3 32-32l0-64c0-17.7-14.3-32-32-32l0-48c0-44.2-35.8-80-80-80L112 64zm56 112c-13.3 0-24 10.7-24 24l0 112c0 13.3 10.7 24 24 24l144 0c13.3 0 24-10.7 24-24l0-112c0-13.3-10.7-24-24-24l-144 0z"/>
  </symbol>

  <!-- Battery 3/4 Icon -->
  <symbol id="icon-battery-three" viewBox="0 0 640 512">
    <path d="M528 128c8.8 0 16 7.2 16 16l0 224c0 8.8-7.2 16-16 16l-416 0c-8.8 0-16-7.2-16-16l0-224c0-8.8 7.2-16 16-16l416 0zM112 64c-44.2 0-80 35.8-80 80l0 224c0 44.2 35.8 80 80 80l416 0c44.2 0 80-35.8 80-80l0-48c17.7 0 32-14.3 32-32l0-64c0-17.7-14.3-32-32-32l0-48c0-44.2-35.8-80-80-80L112 64zm56 112c-13.3 0-24 10.7-24 24l0 112c0 13.3 10.7 24 24 24l224 0c13.3 0 24-10.7 24-24l0-112c0-13.3-10.7-24-24-24l-224 0z"/>
  </symbol>

  <!-- Battery 4/4 Icon -->
  <symbol id="icon-battery-full" viewBox="0 0 640 512">
    <path d="M528 128c8.8 0 16 7.2 16 16l0 224c0 8.8-7.2 16-16 16l-416 0c-8.8 0-16-7.2-16-16l0-224c0-8.8 7.2-16 16-16l416 0zM112 64c-44.2 0-80 35.8-80 80l0 224c0 44.2 35.8 80 80 80l416 0c44.2 0 80-35.8 80-80l0-48c17.7 0 32-14.3 32-32l0-64c0-17.7-14.3-32-32-32l0-48c0-44.2-35.8-80-80-80L112 64zm56 112c-13.3 0-24 10.7-24 24l0 112c0 13.3 10.7 24 24 24l304 0c13.3 0 24-10.7 24-24l0-112c0-13.3-10.7-24-24-24l-304 0z"/>
  </symbol>

  <!-- Wifi Icon -->
  <symbol id="icon-wifi" viewBox="0 0 640 512">
    <path d="M54.2 202.9C123.2 136.7 216.8 96 320 96s196.8 40.7 265.8 106.9c12.8 12.2 33 11.8 45.2-.9s11.8-33-.9-45.2C549.7 79.5 440.4 32 320 32S90.3 79.5 9.8 156.7C-2.9 169-3.3 189.2 8.9 202s32.5 13.2 45.2 .9zM320 256c56.8 0 108.6 21.1 148.2 56c13.3 11.7 33.5 10.4 45.2-2.8s10.4-33.5-2.8-45.2C459.8 219.2 393 192 320 192s-139.8 27.2-190.5 72c-13.3 11.7-14.5 31.9-2.8 45.2s31.9 14.5 45.2 2.8c39.5-34.9 91.3-56 148.2-56zm64 160a64 64 0 1 0 -128 0 64 64 0 1 0 128 0z"/>
  </symbol>

  <!-- Signal Icon -->
  <symbol id="icon-signal" viewBox="0 0 640 512">
    <path d="M576 0c17.7 0 32 14.3 32 32l0 448c0 17.7-14.3 32-32 32s-32-14.3-32-32l0-448c0-17.7 14.3-32 32-32zM448 96c17.7 0 32 14.3 32 32l0 352c0 17.7-14.3 32-32 32s-32-14.3-32-32l0-352c0-17.7 14.3-32 32-32zM352 224l0 256c0 17.7-14.3 32-32 32s-32-14.3-32-32l0-256c0-17.7 14.3-32 32-32s32 14.3 32 32zM192 288c17.7 0 32 14.3 32 32l0 160c0 17.7-14.3 32-32 32s-32-14.3-32-32l0-160c0-17.7 14.3-32 32-32zM96 416l0 64c0 17.7-14.3 32-32 32s-32-14.3-32-32l0-64c0-17.7 14.3-32 32-32s32 14.3 32 32z"/>
  </symbol>

<!-- Device Icon -->
  <symbol id="icon-device" viewBox="0 0 512 512">
    <path d="M418.4 157.9c35.3-8.3 61.6-40 61.6-77.9 0-44.2-35.8-80-80-80-43.4 0-78.7 34.5-80 77.5L136.2 151.1C121.7 136.8 101.9 128 80 128 35.8 128 0 163.8 0 208s35.8 80 80 80c12.2 0 23.8-2.7 34.1-7.6L259.7 407.8c-2.4 7.6-3.7 15.8-3.7 24.2 0 44.2 35.8 80 80 80s80-35.8 80-80c0-27.7-14-52.1-35.4-66.4l37.8-207.7zM156.3 232.2c2.2-6.9 3.5-14.2 3.7-21.7l183.8-73.5c3.6 3.5 7.4 6.7 11.6 9.5L317.6 354.1c-5.5 1.3-10.8 3.1-15.8 5.5L156.3 232.2z"/>
  </symbol>

<!-- Error Icon (Triangle Warning) -->
  <symbol id="icon-error" viewBox="0 0 24 24" fill="none" stroke="currentColor">
    <path
      stroke-linecap="round"
      stroke-linejoin="round"
      stroke-width="2"
      d="M12 9v2m0 4h.01m-6.938 4h13.856c1.54 0 2.502-1.667 1.732-3L13.732 4c-.77-1.333-2.694-1.333-3.464 0L3.34 16c-.77 1.333.192 3 1.732 3z"/>
  </symbol>

<!-- Warning Icon -->
  <symbol id="icon-warning" viewBox="0 0 24 24" fill="none" stroke="currentColor">
    <path
      stroke-linecap="round"
      stroke-linejoin="round"
      stroke-width="2"
      d="M9.172 16.172a4 4 0 015.656 0M9 10h.01M15 10h.01M21 12a9 9 0 11-18 0 9 9 0 0118 0z"/>
  </symbol>

  <!-- About Icon -->
  <symbol id="icon-about" viewBox="0 0 384 512">
    <path d="M256 48l0 16c0 17.7-14.3 32-32 32l-64 0c-17.7 0-32-14.3-32-32l0-16-64 0c-8.8 0-16 7.2-16 16l0 384c0 8.8 7.2 16 16 16l256 0c8.8 0 16-7.2 16-16l0-384c0-8.8-7.2-16-16-16l-64 0zM0 64C0 28.7 28.7 0 64 0L320 0c35.3 0 64 28.7 64 64l0 384c0 35.3-28.7 64-64 64L64 512c-35.3 0-64-28.7-64-64L0 64zM160 320l64 0c44.2 0 80 35.8 80 80 0 8.8-7.2 16-16 16L96 416c-8.8 0-16-7.2-16-16 0-44.2 35.8-80 80-80zm-24-96a56 56 0 1 1 112 0 56 56 0 1 1 -112 0z"/>
  </symbol>

  <!-- Projects Icon -->
  <symbol id="icon-projects" viewBox="0 0 576 512">
    <path d="M348.8 32C340.7 46.1 336 62.5 336 80l0 16-272 0 0 224 272 0 0 64-272 0c-35.3 0-64-28.7-64-64L0 96C0 60.7 28.7 32 64 32l284.8 0zM336 432c0 17.5 4.7 33.9 12.8 48L120 480c-13.3 0-24-10.7-24-24s10.7-24 24-24l216 0zM432 32l96 0c26.5 0 48 21.5 48 48l0 352c0 26.5-21.5 48-48 48l-96 0c-26.5 0-48-21.5-48-48l0-352c0-26.5 21.5-48 48-48zm24 64c-13.3 0-24 10.7-24 24s10.7 24 24 24l48 0c13.3 0 24-10.7 24-24s-10.7-24-24-24l-48 0zm0 96c-13.3 0-24 10.7-24 24s10.7 24 24 24l48 0c13.3 0 24-10.7 24-24s-10.7-24-24-24l-48 0zm56 144a32 32 0 1 0 -64 0 32 32 0 1 0 64 0z"/>
  </symbol>

  <!-- Home Icon -->
  <symbol id="icon-home" viewBox="0 0 512 512">
    <path d="M240 6.1c9.1-8.2 22.9-8.2 32 0l232 208c9.9 8.8 10.7 24 1.8 33.9s-24 10.7-33.9 1.8l-8-7.2 0 205.3c0 35.3-28.7 64-64 64l-288 0c-35.3 0-64-28.7-64-64l0-205.3-8 7.2c-9.9 8.8-25 8-33.9-1.8s-8-25 1.8-33.9L240 6.1zm16 50.1L96 199.7 96 448c0 8.8 7.2 16 16 16l48 0 0-104c0-39.8 32.2-72 72-72l48 0c39.8 0 72 32.2 72 72l0 104 48 0c8.8 0 16-7.2 16-16l0-248.3-160-143.4zM208 464l96 0 0-104c0-13.3-10.7-24-24-24l-48 0c-13.3 0-24 10.7-24 24l0 104z"/>
  </symbol>

  <!-- Blogs Icon -->
  <symbol id="icon-blogs" viewBox="0 0 512 512">
    <path d="M441 58.9L453.1 71c9.4 9.4 9.4 24.6 0 33.9L424 134.1 377.9 88 407 58.9c9.4-9.4 24.6-9.4 33.9 0zM209.8 256.2L344 121.9 390.1 168 255.8 302.2c-2.9 2.9-6.5 5-10.4 6.1l-58.5 16.7 16.7-58.5c1.1-3.9 3.2-7.5 6.1-10.4zM373.1 25L175.8 222.2c-8.7 8.7-15 19.4-18.3 31.1l-28.6 100c-2.4 8.4-.1 17.4 6.1 23.6s15.2 8.5 23.6 6.1l100-28.6c11.8-3.4 22.5-9.7 31.1-18.3L487 138.9c28.1-28.1 28.1-73.7 0-101.8L474.9 25C446.8-3.1 401.2-3.1 373.1 25zM88 64C39.4 64 0 103.4 0 152L0 424c0 48.6 39.4 88 88 88l272 0c48.6 0 88-39.4 88-88l0-112c0-13.3-10.7-24-24-24s-24 10.7-24 24l0 112c0 22.1-17.9 40-40 40L88 464c-22.1 0-40-17.9-40-40l0-272c0-22.1 17.9-40 40-40l112 0c13.3 0 24-10.7 24-24s-10.7-24-24-24L88 64z"/>
  </symbol>

  <!-- HTML Icon -->
  <symbol id="icon-html" viewBox="0 0 128 128">
    <path fill="#E44D26" d="M9.032 2l10.005 112.093 44.896 12.401 45.02-12.387L118.968 2H9.032zm89.126 26.539l-.627 7.172L97.255 39H44.59l1.257 14h50.156l-.336 3.471-3.233 36.119-.238 2.27L64 102.609v.002l-.034.018-28.177-7.423L33.876 74h13.815l.979 10.919L63.957 89H64v-.546l15.355-3.875L80.959 67H33.261l-3.383-38.117L29.549 25h68.939l-.33 3.539z">
    </path>
  </symbol>

  <!-- C# Icon -->
  <symbol id="icon-c#" viewBox="0 0 128 128">
    <path d="M117.5 33.5l.3-.2c-.6-1.1-1.5-2.1-2.4-2.6L67.1 2.9c-.8-.5-1.9-.7-3.1-.7-1.2 0-2.3.3-3.1.7l-48 27.9c-1.7 1-2.9 3.5-2.9 5.4v55.7c0 1.1.2 2.3.9 3.4l-.2.1c.5.8 1.2 1.5 1.9 1.9l48.2 27.9c.8.5 1.9.7 3.1.7 1.2 0 2.3-.3 3.1-.7l48-27.9c1.7-1 2.9-3.5 2.9-5.4V36.1c.1-.8 0-1.7-.4-2.6zm-53.5 70c-21.8 0-39.5-17.7-39.5-39.5S42.2 24.5 64 24.5c14.7 0 27.5 8.1 34.3 20l-13 7.5C81.1 44.5 73.1 39.5 64 39.5c-13.5 0-24.5 11-24.5 24.5s11 24.5 24.5 24.5c9.1 0 17.1-5 21.3-12.4l12.9 7.6c-6.8 11.8-19.6 19.8-34.2 19.8zM115 62h-3.2l-.9 4h4.1v5h-5l-1.2 6h-4.9l1.2-6h-3.8l-1.2 6h-4.8l1.2-6H94v-5h3.5l.9-4H94v-5h5.3l1.2-6h4.9l-1.2 6h3.8l1.2-6h4.8l-1.2 6h2.2v5zm-12.7 4h3.8l.9-4h-3.8z" fill="#68217A">
    </path>
  </symbol>
  

  <!-- Python Icon -->
  <symbol id="icon-python" viewBox="0 0 128 128">
    <linearGradient id="python-original-a" gradientUnits="userSpaceOnUse" x1="70.252" y1="1237.476" x2="170.659" y2="1151.089" gradientTransform="matrix(.563 0 0 -.568 -29.215 707.817)"><stop offset="0" stop-color="#5A9FD4"></stop><stop offset="1" stop-color="#306998"></stop></linearGradient><linearGradient id="python-original-b" gradientUnits="userSpaceOnUse" x1="209.474" y1="1098.811" x2="173.62" y2="1149.537" gradientTransform="matrix(.563 0 0 -.568 -29.215 707.817)"><stop offset="0" stop-color="#FFD43B"></stop><stop offset="1" stop-color="#FFE873"></stop></linearGradient><path fill="url(#python-original-a)" d="M63.391 1.988c-4.222.02-8.252.379-11.8 1.007-10.45 1.846-12.346 5.71-12.346 12.837v9.411h24.693v3.137H29.977c-7.176 0-13.46 4.313-15.426 12.521-2.268 9.405-2.368 15.275 0 25.096 1.755 7.311 5.947 12.519 13.124 12.519h8.491V67.234c0-8.151 7.051-15.34 15.426-15.34h24.665c6.866 0 12.346-5.654 12.346-12.548V15.833c0-6.693-5.646-11.72-12.346-12.837-4.244-.706-8.645-1.027-12.866-1.008zM50.037 9.557c2.55 0 4.634 2.117 4.634 4.721 0 2.593-2.083 4.69-4.634 4.69-2.56 0-4.633-2.097-4.633-4.69-.001-2.604 2.073-4.721 4.633-4.721z" transform="translate(0 10.26)"></path><path fill="url(#python-original-b)" d="M91.682 28.38v10.966c0 8.5-7.208 15.655-15.426 15.655H51.591c-6.756 0-12.346 5.783-12.346 12.549v23.515c0 6.691 5.818 10.628 12.346 12.547 7.816 2.297 15.312 2.713 24.665 0 6.216-1.801 12.346-5.423 12.346-12.547v-9.412H63.938v-3.138h37.012c7.176 0 9.852-5.005 12.348-12.519 2.578-7.735 2.467-15.174 0-25.096-1.774-7.145-5.161-12.521-12.348-12.521h-9.268zM77.809 87.927c2.561 0 4.634 2.097 4.634 4.692 0 2.602-2.074 4.719-4.634 4.719-2.55 0-4.633-2.117-4.633-4.719 0-2.595 2.083-4.692 4.633-4.692z" transform="translate(0 10.26)"></path><radialGradient id="python-original-c" cx="1825.678" cy="444.45" r="26.743" gradientTransform="matrix(0 -.24 -1.055 0 532.979 557.576)" gradientUnits="userSpaceOnUse"><stop offset="0" stop-color="#B8B8B8" stop-opacity=".498"></stop><stop offset="1" stop-color="#7F7F7F" stop-opacity="0"></stop></radialGradient><path opacity=".444" fill="url(#python-original-c)" d="M97.309 119.597c0 3.543-14.816 6.416-33.091 6.416-18.276 0-33.092-2.873-33.092-6.416 0-3.544 14.815-6.417 33.092-6.417 18.275 0 33.091 2.872 33.091 6.417z"></path>
  </symbol>

  <!-- TypeScript Icon -->
  <symbol id="icon-typescript" viewBox="0 0 128 128">
    <path fill="#007acc" d="M2 63.91v62.5h125v-125H2zm100.73-5a15.56 15.56 0 017.82 4.5 20.58 20.58 0 013 4c0 .16-5.4 3.81-8.69 5.85-.12.08-.6-.44-1.13-1.23a7.09 7.09 0 00-5.87-3.53c-3.79-.26-6.23 1.73-6.21 5a4.58 4.58 0 00.54 2.34c.83 1.73 2.38 2.76 7.24 4.86 8.95 3.85 12.78 6.39 15.16 10 2.66 4 3.25 10.46 1.45 15.24-2 5.2-6.9 8.73-13.83 9.9a38.32 38.32 0 01-9.52-.1A23 23 0 0180 109.19c-1.15-1.27-3.39-4.58-3.25-4.82a9.34 9.34 0 011.15-.73l4.6-2.64 3.59-2.08.75 1.11a16.78 16.78 0 004.74 4.54c4 2.1 9.46 1.81 12.16-.62a5.43 5.43 0 00.69-6.92c-1-1.39-3-2.56-8.59-5-6.45-2.78-9.23-4.5-11.77-7.24a16.48 16.48 0 01-3.43-6.25 25 25 0 01-.22-8c1.33-6.23 6-10.58 12.82-11.87a31.66 31.66 0 019.49.26zm-29.34 5.24v5.12H57.16v46.23H45.65V69.26H29.38v-5a49.19 49.19 0 01.14-5.16c.06-.08 10-.12 22-.1h21.81z">
    </path>
  </symbol>

  <!-- Powershell Icon -->
  <symbol id="icon-powershell" viewBox="0 0 128 128">
    <path fill-rule="evenodd" d="M124.912 19.358c-.962-1.199-2.422-1.858-4.111-1.858h-92.61c-3.397 0-6.665 2.642-7.444 6.015L2.162 104.022c-.396 1.711-.058 3.394.926 4.619.963 1.199 2.423 1.858 4.111 1.858v.001H99.81c3.396 0 6.665-2.643 7.443-6.016l18.586-80.508c.395-1.711.057-3.395-.927-4.618zm-98.589 77.17c-1.743-2.397-1.323-5.673.94-7.318l37.379-27.067v-.556L41.157 36.603c-1.916-2.038-1.716-5.333.445-7.361 2.162-2.027 5.466-2.019 7.382.019l28.18 29.979c1.6 1.702 1.718 4.279.457 6.264-.384.774-1.182 1.628-2.593 2.618l-41.45 29.769c-2.263 1.644-5.512 1.034-7.255-1.363zm59.543.538H63.532c-2.597 0-4.702-2.082-4.702-4.65s2.105-4.65 4.702-4.65h22.333c2.597 0 4.702 2.082 4.702 4.65s-2.104 4.65-4.701 4.65z" clip-rule="evenodd">
    </path>
  </symbol>

  <!-- Lua Icon -->
  <symbol id="icon-lua" viewBox="0 0 128 128">
    <path fill="#000080" d="M61.7 0c-1.9 0-3.8.2-5.6.4l.2 1.5c1.8-.2 3.6-.4 5.5-.4L61.7 0zm5.6 0-.1 1.5c1.8.1 3.6.3 5.4.5l.3-1.5C71 .3 69.2.1 67.3 0zm45.7.8c-7.9 0-14.4 6.3-14.4 14.3S105 29.4 113 29.4s14.3-6.4 14.3-14.3S120.9.8 113 .8zm-62.4.6c-1.8.4-3.6.9-5.4 1.4l.4 1.4c1.7-.5 3.5-1 5.3-1.4l-.3-1.4zm27.6.3-.3 1.4c1.8.4 3.6.8 5.3 1.4l.4-1.3c-1.8-.6-3.6-1.1-5.4-1.5zm-38.3 3c-1.7.7-3.4 1.5-5.1 2.3l.7 1.3c1.6-.8 3.3-1.6 5-2.3l-.6-1.3zm49 .3-.5 1.4c1.6.7 3.3 1.5 4.9 2.3l.6-1.3c-1.6-.9-3.3-1.7-5-2.4zM30 9.7c-1.6 1-3.1 2.1-4.6 3.2l.9 1.2c1.4-1.1 2.9-2.1 4.5-3.2L30 9.7zm34 5.4c-27 0-49 21.9-49 49s21.9 49 49 49 49-21.9 49-49-22-49-49-49zm-42.9 1.4c-1.4 1.2-2.7 2.5-4 3.9l1.1 1c1.2-1.3 2.5-2.6 3.9-3.8l-1-1.1zm-7.6 8.2c-1.1 1.4-2.2 2.9-3.2 4.5l1.2.8c1-1.5 2-3 3.2-4.4l-1.2-.9zm70.8 4.7c7.9 0 14.3 6.4 14.3 14.3S92.2 58 84.3 58 70 51.6 70 43.7s6.4-14.3 14.3-14.3zM7.4 34.1c-.9 1.6-1.7 3.3-2.4 5l1.4.5c.7-1.6 1.5-3.3 2.3-4.8l-1.3-.7zm113.6.8-1.3.7c.9 1.6 1.6 3.3 2.3 5l1.3-.6c-.7-1.7-1.5-3.4-2.3-5.1zM3.1 44.3c-.6 1.8-1.1 3.6-1.5 5.4L3 50c.4-1.8.9-3.5 1.5-5.2l-1.4-.5zm122.1 1-1.4.4c.6 1.7 1 3.5 1.4 5.3l1.4-.3c-.4-1.8-.9-3.6-1.4-5.4zM.5 55.1C.3 57 .1 58.8 0 60.7l1.5.1c.1-1.8.3-3.6.5-5.4l-1.5-.3zm127.1 1.1-1.5.2c.2 1.8.3 3.6.4 5.4h1.5c0-1.9-.2-3.8-.4-5.6zm-96.9.2h4.1v28.5h15.9v3.6h-20V56.4zm57.7 8.3c5.7 0 8.7 2.2 8.7 6.3v13.6c0 1.1.7 1.8 2 1.8.2 0 .4 0 .8-.1l-.1 2.8c-1.2.3-1.8.4-2.5.4-2.4 0-3.5-1.1-3.8-3.4-2.6 2.4-4.9 3.4-7.8 3.4-4.7 0-7.6-2.6-7.6-6.8 0-3 1.4-5.1 4.1-6.2 1.4-.6 2.2-.7 7.4-1.4 2.9-.4 3.8-1 3.8-2.6v-1c0-2.2-1.9-3.4-5.2-3.4-3.4 0-5.1 1.3-5.4 4.1h-3.7c.1-2.3.5-3.6 1.6-4.8 1.5-1.7 4.3-2.7 7.7-2.7zm-33.8.7h3.7v16.3c0 2.8 1.9 4.5 4.8 4.5 3.8 0 6.3-3.1 6.3-7.8v-13H73v23.1h-3.3v-3.2c-2.2 3-4.3 4.2-7.7 4.2-4.5 0-7.4-2.5-7.4-6.3V65.4zm-53.1.8-1.5.1c.1 1.9.2 3.7.5 5.6l1.4-.3c-.2-1.8-.3-3.6-.4-5.4zm124.9 1.1c-.1 1.8-.3 3.6-.5 5.4l1.5.2c.3-1.8.5-3.7.5-5.5l-1.5-.1zM2.8 77.1l-1.4.3c.4 1.8.9 3.6 1.4 5.4l1.4-.4c-.6-1.8-1-3.5-1.4-5.3zm90.6 0c-1.2.6-2 .7-5.9 1.3-3.9.5-5.6 1.8-5.6 4.2 0 2.3 1.7 3.7 4.5 3.7 2.2 0 4-.7 5.5-2.1 1.1-1 1.5-1.8 1.5-3v-4.1zm31.6.9c-.5 1.8-.9 3.6-1.5 5.3l1.4.5c.6-1.8 1.1-3.6 1.5-5.5L125 78zM6 87.5l-1.3.5c.7 1.7 1.5 3.4 2.3 5.1l1.3-.6c-.9-1.7-1.6-3.3-2.3-5zm115.7 1c-.8 1.6-1.5 3.3-2.4 4.9l1.3.7L123 89l-1.3-.5zM10.9 97.2l-1.2.8c1 1.6 2.1 3.1 3.2 4.6l1.1-.9c-1.1-1.5-2.1-3-3.1-4.5zm105.6.9c-1 1.5-2.1 3-3.2 4.4l1.2.9c1.1-1.4 2.2-3 3.2-4.5l-1.2-.8zm-98.9 7.8-1.1 1c1.2 1.4 2.5 2.7 3.9 4l1-1.1c-1.3-1.2-2.6-2.6-3.8-3.9zm92.2.8c-1.2 1.3-2.6 2.6-3.9 3.8l1 1.1c1.3-1.3 2.7-2.6 4-3.9l-1.1-1zm-84.2 6.6-.9 1.2c1.4 1.1 2.9 2.2 4.5 3.2l.8-1.2c-1.5-1-3-2.1-4.4-3.2zm76.1.7c-1.5 1.1-3 2.1-4.5 3.1l.8 1.2c1.5-1 3.1-2 4.6-3.1l-.9-1.2zm-67 5.3-.7 1.3c1.6.9 3.3 1.7 5 2.4l.6-1.3c-1.6-.8-3.3-1.5-4.9-2.4zm57.7.4c-1.7.9-3.3 1.6-5 2.3l.6 1.4c1.7-.7 3.4-1.5 5.1-2.4l-.7-1.3zm-47.7 3.8-.5 1.4c1.8.6 3.6 1.1 5.4 1.5l.4-1.4c-1.8-.5-3.6-.9-5.3-1.5zm37.6.3c-1.8.6-3.5 1-5.3 1.4l.3 1.4c1.9-.3 3.7-.8 5.4-1.4l-.4-1.4zm-27 2.2-.2 1.5c1.9.2 3.7.4 5.6.5v-1.5c-1.8-.1-3.6-.3-5.4-.5zm16.3.1c-1.8.2-3.6.3-5.4.4l.1 1.5c1.8-.1 3.7-.2 5.5-.4l-.2-1.5z">
    </path>
  </symbol>

  <!-- Go Icon -->
  <symbol id="icon-go" viewBox="0 0 128 128">
<g fill="#00acd7" fill-rule="evenodd"><path d="M11.156 54.829c-.243 0-.303-.122-.182-.303l1.273-1.637c.12-.182.424-.303.666-.303H34.55c.243 0 .303.182.182.364l-1.03 1.576c-.121.181-.424.363-.606.363zM2.004 60.404c-.242 0-.303-.12-.182-.303l1.273-1.636c.121-.182.424-.303.667-.303h27.636c.242 0 .364.182.303.364l-.485 1.454c-.06.243-.303.364-.545.364zM16.67 65.98c-.242 0-.302-.182-.181-.364l.848-1.515c.122-.182.364-.363.607-.363h12.12c.243 0 .364.181.364.424l-.12 1.454c0 .243-.243.425-.425.425zM79.58 53.738c-3.819.97-6.425 1.697-10.182 2.666-.91.243-.97.303-1.758-.606-.909-1.03-1.576-1.697-2.848-2.303-3.819-1.878-7.516-1.333-10.97.91-4.121 2.666-6.242 6.605-6.182 11.514.06 4.849 3.394 8.849 8.182 9.516 4.121.545 7.576-.91 10.303-4 .545-.667 1.03-1.394 1.636-2.243H56.064c-1.272 0-1.575-.788-1.151-1.818.788-1.879 2.242-5.03 3.09-6.606.183-.364.607-.97 1.516-.97h22.06c-.12 1.637-.12 3.273-.363 4.91-.667 4.363-2.303 8.363-4.97 11.878-4.364 5.758-10.06 9.333-17.273 10.303-5.939.788-11.454-.364-16.302-4-4.485-3.394-7.03-7.879-7.697-13.454-.788-6.606 1.151-12.546 5.151-17.758 4.303-5.636 10-9.212 16.97-10.485 5.697-1.03 11.151-.363 16.06 2.97 3.212 2.121 5.515 5.03 7.03 8.545.364.546.122.849-.606 1.03z"></path><path d="M99.64 87.253c-5.515-.122-10.546-1.697-14.788-5.334-3.576-3.09-5.818-7.03-6.545-11.697-1.091-6.848.787-12.909 4.909-18.302 4.424-5.819 9.757-8.849 16.97-10.122 6.181-1.09 12-.484 17.272 3.091 4.788 3.273 7.757 7.697 8.545 13.515 1.03 8.182-1.333 14.849-6.97 20.546-4 4.06-8.909 6.606-14.545 7.757-1.636.303-3.273.364-4.848.546zm14.424-24.485c-.06-.788-.06-1.394-.182-2-1.09-6-6.606-9.394-12.363-8.06-5.637 1.272-9.273 4.848-10.606 10.545-1.091 4.727 1.212 9.515 5.575 11.454 3.334 1.455 6.667 1.273 9.879-.363 4.788-2.485 7.394-6.364 7.697-11.576z" fill-rule="nonzero"></path></g>
  </symbol>

  <!-- JavaScript Icon -->
  <symbol id="icon-javascript" viewBox="0 0 128 128">
    <path fill="#F0DB4F" d="M2 1v125h125V1H2zm66.119 106.513c-1.845 3.749-5.367 6.212-9.448 7.401-6.271 1.44-12.269.619-16.731-2.059-2.986-1.832-5.318-4.652-6.901-7.901l9.52-5.83c.083.035.333.487.667 1.071 1.214 2.034 2.261 3.474 4.319 4.485 2.022.69 6.461 1.131 8.175-2.427 1.047-1.81.714-7.628.714-14.065C58.433 78.073 58.48 68 58.48 58h11.709c0 11 .06 21.418 0 32.152.025 6.58.596 12.446-2.07 17.361zm48.574-3.308c-4.07 13.922-26.762 14.374-35.83 5.176-1.916-2.165-3.117-3.296-4.26-5.795 4.819-2.772 4.819-2.772 9.508-5.485 2.547 3.915 4.902 6.068 9.139 6.949 5.748.702 11.531-1.273 10.234-7.378-1.333-4.986-11.77-6.199-18.873-11.531-7.211-4.843-8.901-16.611-2.975-23.335 1.975-2.487 5.343-4.343 8.877-5.235l3.688-.477c7.081-.143 11.507 1.727 14.756 5.355.904.916 1.642 1.904 3.022 4.045-3.772 2.404-3.76 2.381-9.163 5.879-1.154-2.486-3.069-4.046-5.093-4.724-3.142-.952-7.104.083-7.926 3.403-.285 1.023-.226 1.975.227 3.665 1.273 2.903 5.545 4.165 9.377 5.926 11.031 4.474 14.756 9.271 15.672 14.981.882 4.916-.213 8.105-.38 8.581z">
    </path>
  </symbol>

  <!-- C Icon -->
  <symbol id="icon-c" viewBox="0 0 128 128">
    <path fill="#a9bacd" d="M125 50c-4-32-24-50-62-50C29 0 3 24 3 64c0 39 24 64 64 64 32 0 55-19 58-50H87c-2 11-8 20-20 20-21 0-24-16-24-33 0-23 8-35 22-35 13 0 20 7 22 20z">
    </path>
  </symbol>

  <!-- CSS Icon -->
  <symbol id="icon-css" viewBox="0 0 128 128">
    <path fill="#1572B6" d="M8.76 1l10.055 112.883 45.118 12.58 45.244-12.626L119.24 1H8.76zm89.591 25.862l-3.347 37.605.01.203-.014.467v-.004l-2.378 26.294-.262 2.336L64 101.607v.001l-.022.019-28.311-7.888L33.75 72h13.883l.985 11.054 15.386 4.17-.004.008v-.002l15.443-4.229L81.075 65H48.792l-.277-3.043-.631-7.129L47.553 51h34.749l1.264-14H30.64l-.277-3.041-.63-7.131L29.401 23h69.281l-.331 3.862z">
    </path>
  </symbol>

  <!-- Fallback Language Icon -->
  <symbol id="icon-fallback" viewBox="0 0 128 128">
    <path style="line-height:normal;font-variant-ligatures:normal;font-variant-position:normal;font-variant-caps:normal;font-variant-numeric:normal;font-variant-alternates:normal;font-variant-east-asian:normal;font-feature-settings:normal;font-variation-settings:normal;text-indent:0;text-align:start;text-decoration-line:none;text-decoration-style:solid;text-decoration-color:#000;text-transform:none;text-orientation:mixed;white-space:normal;shape-padding:0;shape-margin:0;inline-size:0;isolation:auto;mix-blend-mode:normal;solid-color:#000;solid-opacity:1" d="M11.95 24.348c-5.836 0-10.618 4.867-10.618 10.681v57.942c0 5.814 4.782 10.681 10.617 10.681h104.102c5.835 0 10.617-4.867 10.617-10.681V35.03c0-5.814-4.783-10.681-10.617-10.681H14.898l-.002-.002H11.95zm-.007 9.543h104.108c.625 0 1.076.423 1.076 1.14v57.94c0 .717-.453 1.14-1.076 1.14H11.949c-.623 0-1.076-.423-1.076-1.14V35.029c0-.715.451-1.135 1.07-1.138z" color="#000" font-weight="400" font-family="sans-serif" overflow="visible"></path><path d="M20.721 84.1V43.9H32.42l11.697 14.78L55.81 43.9h11.696v40.2H55.81V61.044l-11.694 14.78-11.698-14.78V84.1H20.722zm73.104 0L76.28 64.591h11.697V43.9h11.698v20.69h11.698zm0 0">
    </path>
  </symbol>

</svg>
